<svg xmlns="http://www.w3.org/2000/svg" width="613.528" height="216.875" viewBox="0 0 613.528 216.875">
  <g id="c" transform="translate(25.997 0.01)">
    <path id="Path_1" data-name="Path 1" d="M159.73,63.57q1.725-8.73,2.98-17.64c.83-5.94,1.76-12.04,2.7-17.96l-14.76.04-6.49,37.38a24.426,24.426,0,0,0,7.94.66,19,19,0,0,0,7.64-2.48Zm-46.7-50.23-7.34,49.87L75.25,73.13q5.76,2.6,13.32,5.28t14.08,4.64l-.38,2.41-2.35,15.68Q97.715,115.1,95.47,129q-16.635,2.895-26.53,13.32a27.262,27.262,0,0,0-7.43,24.63c-.32-.18-1.23-2.39-2.75-6.63q-2.22-6.2-.77-15.03H.66a28.981,28.981,0,0,0,7.26-2,10.6,10.6,0,0,0,5.17-4.53c1.05-1.71,1.65-5.6,11.88-65.15l11.1,1.97-1.66-.7a8.7,8.7,0,0,0-1.11-.51c-.39-.15-.81-.33-1.25-.55a105.971,105.971,0,0,0-13.02-5.88Q12.2,65.39,7.02,66.08q-5.19.705-6.5,7.13Q-.92,65.26,1.64,61.04a13.61,13.61,0,0,1,7.51-5.91,22.327,22.327,0,0,1,12,0,56.087,56.087,0,0,1,5.54,1.65l4.92-30.32q.66-4.8-2.28-7.16c-1.84-1.47-4.39-5.29-7.66-5.98h91.36ZM63.99,130.3l7.23-43.28L54.28,81.95l-.38,2.93-7.93,45.7,18.01-.27ZM80.47,27.96l-17.7-.13-.55,3.83-5.5,32.65c.86.28,1.7.54,2.5.78s1.63.49,2.5.78l12.66-4.72,1.08-2.28,5-30.9ZM484.35,84.48l5.01-32.3,5.55-37.83h26.23L503.83,128.43H479.16L467.77,64.66l-9.6,63.77H432.09L447.78,27.27l1.58-12.92H474.4l9.95,70.13ZM284.34,26.18a11.572,11.572,0,0,0,.1-1.28l1.22-10.56h26.38l-14.8,98.42,6.72,7.62,8.65-5.8c1.89-11.74,12.9-88.5,14.8-100.24h26.18l-8.6,57.553L339.23,110.4l-39.38,27.97-28.94-26.82,5.58-35.74,7.85-49.64Zm64.75,102.25L366.15,14.35H434.3c-.92,5.71-1.73,13.57-2.42,18.1L429.8,45.99q-1.035,6.75-2.42,15.24a56.632,56.632,0,0,0-14.9-13.31,87.6,87.6,0,0,0-8.54-4.63l2.4-15.94-15.47-.27-5.03,33.24a97.016,97.016,0,0,1,17.2-1.41q7.545.15,12.01,2.68a9.686,9.686,0,0,1,4.98,6.63q.75,4.1-4.11,10.44,1.455-5.685-3.44-7.43T399.66,70.1a149.3,149.3,0,0,0-15.56,2.02l-1.42,8.6-5.85,38.27h15.12l.23-.89,2.53-13.41q4.47-1.77,9.92-4.57a83.327,83.327,0,0,0,18.85-13.28q-1.725,11.25-3.14,20.66l-3.14,20.94H349.08ZM241.16,63.56q1.725-8.73,2.98-17.64c.83-5.94,1.76-12.04,2.7-17.96L232.08,28l-6.49,37.38a24.426,24.426,0,0,0,7.94.66,19,19,0,0,0,7.64-2.48ZM205.22,26.94a10.125,10.125,0,0,0,.2-1.93l1.26-10.97h43.55c1.87,3.75,4.68,9.61,8.44,12.09a34.233,34.233,0,0,0,13.63,4.99l-14.65,97H231.22l1.42-9.45.06-.36,6.71-43.41c-2.41.96-5.69,1.43-10.06,1.5a31.817,31.817,0,0,1-3.82-.18c-.58-.06-1.17-.14-1.78-.23a66.131,66.131,0,0,1-11.36-2.79l10.74,6.6-7.52,48.32H189.62l10.53-68.67,2.27-14.57q1.365-8.835,2.81-17.94Zm-32.6,65.54,5.85,35.68-1.41.27H155.14s-4.11-20.93-6.53-32.66c-2.13-10.32-4.3-21.12-4.98-25.31l-.27-1.4-8.59,59.37H106.26l1.73-11.26q.675-3.435,1.47-8.81c1.08-7.3,12.58-82.2,12.58-82.2a9.6,9.6,0,0,0,.11-1.38l1.18-10.43H191.5l-4.87,34.34L181.8,80.05a43.69,43.69,0,0,1-9.94,1.55,47.271,47.271,0,0,1-7.84-1.17l7.37,4.54,1.23,7.51Z" transform="translate(20)" fill-rule="evenodd"/>
    <path id="Path_2" data-name="Path 2" d="M524.9,2.37V3.65h.52a1.2,1.2,0,0,0,.68-.15.549.549,0,0,0,.22-.47.587.587,0,0,0-.23-.5,1.238,1.238,0,0,0-.72-.16h-.47Zm-1.06-.68h1.71a2.543,2.543,0,0,1,1.4.32,1.078,1.078,0,0,1,.47.95,1.151,1.151,0,0,1-.25.75,1.222,1.222,0,0,1-.7.42l.98,1.97h-1.18l-.83-1.8h-.52V6.1h-1.06V1.69ZM525.47.66a3.158,3.158,0,0,0-2.29.94,3.386,3.386,0,0,0-.74,1.1,3.32,3.32,0,0,0,1.75,4.32,3.182,3.182,0,0,0,1.25.26,3.075,3.075,0,0,0,1.23-.25,3.689,3.689,0,0,0,1.09-.72,3.209,3.209,0,0,0,.71-1.04,3.111,3.111,0,0,0,.25-1.23,3.42,3.42,0,0,0-.24-1.3,3.25,3.25,0,0,0-.7-1.07,3.078,3.078,0,0,0-1.07-.74,3.212,3.212,0,0,0-1.28-.25Zm-.01-.67a3.963,3.963,0,0,1,3.66,2.47,4.07,4.07,0,0,1,.29,1.52,3.938,3.938,0,0,1-.3,1.53,3.666,3.666,0,0,1-.86,1.27,4.106,4.106,0,0,1-1.29.86,3.85,3.85,0,0,1-1.49.3,3.78,3.78,0,0,1-1.51-.31,3.888,3.888,0,0,1-1.28-.89,3.8,3.8,0,0,1-.84-1.27,3.954,3.954,0,0,1-.29-1.49,4.165,4.165,0,0,1,.14-1.06,4.645,4.645,0,0,1,.43-1.01A3.89,3.89,0,0,1,523.53.5a3.792,3.792,0,0,1,1.94-.5Z" fill="#fff" fill-rule="evenodd"/>
    <path id="Path_3" data-name="Path 3" d="M536.45,3.1h-1a.868.868,0,0,0-.28-.58.922.922,0,0,0-.63-.21.841.841,0,0,0-.76.44,2.279,2.279,0,0,0-.28,1.21,2.13,2.13,0,0,0,.28,1.2.912.912,0,0,0,.81.41.84.84,0,0,0,.62-.22.978.978,0,0,0,.28-.64h1.03a1.609,1.609,0,0,1-.58,1.19,2.092,2.092,0,0,1-1.39.45,2.034,2.034,0,0,1-1.57-.63A2.463,2.463,0,0,1,532.41,4a2.516,2.516,0,0,1,.58-1.75,1.981,1.981,0,0,1,1.57-.65,2.085,2.085,0,0,1,1.34.42,1.418,1.418,0,0,1,.56,1.09ZM534.54.66a3.246,3.246,0,0,0-1.28.25,3.291,3.291,0,0,0-1.06.71,3.381,3.381,0,0,0-.73,1.08,3.2,3.2,0,0,0-.25,1.27,3.116,3.116,0,0,0,.25,1.26,3.424,3.424,0,0,0,1.8,1.79,3.184,3.184,0,0,0,1.26.25,3.268,3.268,0,0,0,1.27-.25,3.423,3.423,0,0,0,1.09-.73,3.2,3.2,0,0,0,.71-1.05,3.339,3.339,0,0,0,.24-1.27,3.268,3.268,0,0,0-.97-2.34A3.158,3.158,0,0,0,535.8.91a3.2,3.2,0,0,0-1.27-.25Zm-.01-.67a4.024,4.024,0,0,1,1.54.3,3.972,3.972,0,0,1,1.29.87,3.773,3.773,0,0,1,.85,1.28,3.931,3.931,0,0,1,.29,1.53,4.032,4.032,0,0,1-.29,1.52,3.676,3.676,0,0,1-.86,1.26,4.357,4.357,0,0,1-1.32.88,3.922,3.922,0,0,1-1.51.31,3.862,3.862,0,0,1-1.5-.3,3.952,3.952,0,0,1-1.29-.88,3.931,3.931,0,0,1-.87-1.28,3.862,3.862,0,0,1-.3-1.5,3.961,3.961,0,0,1,.3-1.52,4.013,4.013,0,0,1,.87-1.3A3.876,3.876,0,0,1,534.52,0Z" fill="#fff" fill-rule="evenodd"/>
    <g id="Group_1" data-name="Group 1" transform="translate(0.464)">
      <path id="Path_4" data-name="Path 4" d="M107.667,142.44h16.819c11.258,0,16.046,5.389,16.407,12.889.463,9.611-6.47,16.39-19.29,16.39h-6.23l-2.231,12.648a.567.567,0,0,1-.532.429H100.03a.441.441,0,0,1-.446-.549l3.93-20.08,3.621-21.3a.567.567,0,0,1,.532-.429Zm9.37,20.028h4.291c4.891,0,6.882-2.78,6.71-6.3-.12-2.54-1.424-4.531-5.234-4.531h-3.758l-2.025,10.829Z" transform="translate(-126.036 30.988)"/>
      <path id="Path_5" data-name="Path 5" d="M158.438,175.889l-1.527,8.478a.567.567,0,0,1-.532.429H124.32a.441.441,0,0,1-.446-.549l3.879-19.908,3.673-21.47a.567.567,0,0,1,.532-.429h31.578a.441.441,0,0,1,.446.549l-1.527,8.409a.567.567,0,0,1-.532.429H143.232l-1.27,6.178h16.63a.441.441,0,0,1,.446.549l-1.527,8.409a.552.552,0,0,1-.532.429h-16.75l-1.3,7.98h19.05a.441.441,0,0,1,.446.549Z" transform="translate(-108.639 30.988)"/>
      <path id="Path_6" data-name="Path 6" d="M179.053,169.47l7,14.759c.137.36.034.549-.343.549h-13.18a.616.616,0,0,1-.618-.36l-5.217-11.55-.944-2.111h-3.69l-2.368,13.609a.547.547,0,0,1-.515.429H146.72a.441.441,0,0,1-.446-.549l3.758-19.959,3.81-21.418a.567.567,0,0,1,.532-.429h18.878c11.258,0,16.046,5.2,16.39,12.408.326,6.9-3.4,12.288-10.537,14.639Zm-13.438-17.848-1.888,9.92h6.951c4.479,0,6.3-2.54,6.127-5.749-.12-2.368-1.356-4.17-4.805-4.17h-6.419Z" transform="translate(-92.596 30.988)"/>
      <path id="Path_7" data-name="Path 7" d="M185.634,184.364a.547.547,0,0,1-.515.429H172.66a.441.441,0,0,1-.446-.549l4.016-20.7,3.535-20.7a.567.567,0,0,1,.532-.429h30.548a.441.441,0,0,1,.446.549l-1.527,8.409a.552.552,0,0,1-.532.429h-17.66l-1.613,8.049H206.9a.441.441,0,0,1,.446.549l-1.527,8.409a.547.547,0,0,1-.515.429H188.243l-2.591,15.12Z" transform="translate(-74.018 30.974)"/>
      <path id="Path_8" data-name="Path 8" d="M195.652,166.977c-.618-12.94,8.461-25.177,23.889-25.177,11.619,0,20.783,6.951,21.384,19.307.635,13.009-8.512,25.228-23.889,25.228C205.418,186.335,196.253,179.368,195.652,166.977Zm32.007-6.23c-.309-6.47-3.707-9.2-8.186-9.2-8.65,0-10.829,9.988-10.537,15.858.309,6.47,3.707,9.2,8.186,9.2C225.772,176.6,227.951,166.616,227.659,160.747Z" transform="translate(-57.246 30.53)"/>
      <path id="Path_9" data-name="Path 9" d="M255.893,169.47l7,14.759c.137.36.034.549-.343.549h-13.18a.616.616,0,0,1-.618-.36l-5.217-11.55-.944-2.111H238.9l-2.368,13.609a.547.547,0,0,1-.515.429H223.56a.441.441,0,0,1-.446-.549l3.758-19.959,3.81-21.418a.567.567,0,0,1,.532-.429h18.878c11.258,0,16.046,5.2,16.39,12.408.326,6.9-3.4,12.288-10.537,14.639Zm-13.438-17.848-1.888,9.92h6.951c4.479,0,6.3-2.54,6.127-5.749-.12-2.368-1.356-4.17-4.805-4.17h-6.419Z" transform="translate(-37.564 30.988)"/>
      <path id="Path_10" data-name="Path 10" d="M260.432,184.357a.552.552,0,0,1-.532.429H249.5a.441.441,0,0,1-.446-.549L253,163.179l3.621-20.32a.567.567,0,0,1,.532-.429H272.1a.5.5,0,0,1,.566.429l4.29,24.868,12.58-24.919a.55.55,0,0,1,.532-.36H307.13a.441.441,0,0,1,.446.549l-3.861,20.2-3.69,21.178a.547.547,0,0,1-.515.429H287.1a.441.441,0,0,1-.446-.549L289.9,166.1l.051-.309,1.579-6.3L279,184.408a.55.55,0,0,1-.532.36h-9.13a.5.5,0,0,1-.566-.429l-4.153-24.559-.738,5.99-.051.24-3.347,18.329Z" transform="translate(-18.985 30.981)"/>
      <path id="Path_11" data-name="Path 11" d="M321.13,142.913l5.8,41.378c0,.309-.1.481-.395.481H314.677a.455.455,0,0,1-.5-.481l-.944-8.221H299.557l-3.827,8.358a.55.55,0,0,1-.532.36H281.64a.4.4,0,0,1-.395-.6l21.59-41.378a.657.657,0,0,1,.532-.36h17.179a.524.524,0,0,1,.566.481Zm-10.623,9.13-6.35,13.85h7.929l-1.579-13.85Z" transform="translate(4.033 30.996)"/>
      <path id="Path_12" data-name="Path 12" d="M322.253,184.357a.567.567,0,0,1-.532.429H310.84a.441.441,0,0,1-.446-.549l3.793-20.268,3.758-21.109a.567.567,0,0,1,.532-.429h13.678a.625.625,0,0,1,.566.429l8.461,23.478.429-3.758.052-.24,3.587-19.479a.547.547,0,0,1,.515-.429h10.829a.441.441,0,0,1,.446.549l-4,20.989-3.484,20.388a.552.552,0,0,1-.532.429h-14.09a.625.625,0,0,1-.566-.429L326.286,161l-.515,4.411-.051.24-3.45,18.689Z" transform="translate(24.946 30.981)"/>
      <path id="Path_13" data-name="Path 13" d="M338.773,166.908c-.618-12.889,8.221-25.108,23.838-25.108,11.018,0,18.14,6.041,19.41,16.029a.361.361,0,0,1-.395.481H370.2a.557.557,0,0,1-.566-.481c-.755-4.359-3.5-6.3-7.26-6.3-8.53,0-10.589,10.04-10.3,15.789.309,6.539,3.707,9.25,8.186,9.25s6.642-2.78,7.809-6.23a.509.509,0,0,1,.532-.36h11.67c.309,0,.5.189.446.429-1.871,8.959-9.1,15.909-20.766,15.909s-20.543-6.968-21.144-19.427Z" transform="translate(45.256 30.53)"/>
      <path id="Path_14" data-name="Path 14" d="M399.348,175.889l-1.527,8.478a.567.567,0,0,1-.532.429H365.23a.441.441,0,0,1-.446-.549l3.879-19.908,3.673-21.47a.567.567,0,0,1,.532-.429h31.578a.441.441,0,0,1,.446.549l-1.527,8.409a.567.567,0,0,1-.532.429H384.142l-1.27,6.178H399.5a.441.441,0,0,1,.446.549l-1.527,8.409a.547.547,0,0,1-.515.429h-16.75l-1.3,7.98H398.9a.441.441,0,0,1,.446.549Z" transform="translate(63.9 30.988)"/>
      <path id="Path_15" data-name="Path 15" d="M394.436,184.779a.37.37,0,0,1-.326-.36l4.2-21.779,3.45-19.839a.425.425,0,0,1,.412-.36h4.96a.37.37,0,0,1,.326.36l-3.707,19.548-3.244,17.9h18.93a.37.37,0,0,1,.326.36l-.669,3.81a.425.425,0,0,1-.412.36h-24.25Z" transform="translate(84.91 30.988)"/>
      <path id="Path_16" data-name="Path 16" d="M443.458,184.786a.564.564,0,0,1-.446-.36l-1.922-12.288H423.671l-6.419,12.339a.674.674,0,0,1-.532.309h-5.44a.207.207,0,0,1-.189-.309l22.671-41.738a.674.674,0,0,1,.532-.309h6.659a.564.564,0,0,1,.446.36l7.088,41.618a.284.284,0,0,1-.292.36h-4.72Zm-3.141-17.419-3.312-20.818-10.846,20.818Z" transform="translate(97.053 30.981)"/>
      <path id="Path_17" data-name="Path 17" d="M453.144,184.779H435.9a.37.37,0,0,1-.326-.36L439.74,163l3.553-20.2a.425.425,0,0,1,.412-.36h14.948c9.13,0,14.759,3.69,13.678,11.31-.669,4.788-4.273,7.929-9.611,8.77,5.835,1.751,8.066,5.509,7.362,10.9-1.236,8.169-8.821,11.378-16.939,11.378Zm-11.155-4.359h11.43c5.749,0,10.126-1.939,10.967-7.328,1.03-6.161-3.381-8.53-8.873-8.53H444.872l-2.866,15.858Zm3.621-20.148h11.258c5.269,0,9.062-1.7,9.8-6.161.841-5.028-2.54-7.38-8.152-7.38H448.287l-2.677,13.558Z" transform="translate(114.604 30.988)"/>
    </g>
  </g>
</svg>
