<svg xmlns="http://www.w3.org/2000/svg" id="b" viewBox="0 0 538.51 167.75"><g id="c"><path d="m159.73,63.57c1.15-5.82,2.15-11.71,2.98-17.64.83-5.94,1.76-12.04,2.7-17.96l-14.76.04-6.49,37.38c3.41.68,5.54.93,7.94.66,3.45-.38,5.78-1.43,7.64-2.48ZM113.03,13.34l-7.34,49.87-30.44,9.92c3.84,1.73,8.28,3.49,13.32,5.28,5.04,1.79,9.74,3.33,14.08,4.64l-.38,2.41-2.35,15.68c-1.47,9.31-2.95,18.6-4.45,27.86-11.09,1.93-19.94,6.37-26.53,13.32-6.59,6.96-9.07,15.17-7.43,24.63-.32-.18-1.23-2.39-2.75-6.63-1.48-4.13-1.74-9.14-.77-15.03H.66c2.6-.38,5.02-1.04,7.26-2,2.25-.96,3.97-2.46,5.17-4.53,1.05-1.71,1.65-5.6,11.88-65.15l11.1,1.97-1.66-.7c-.35-.19-.71-.36-1.11-.51-.39-.15-.81-.33-1.25-.55-4.13-2.22-8.48-4.18-13.02-5.88-4.55-1.7-8.55-2.32-12.01-1.86-3.46.47-5.63,2.84-6.5,7.13-.96-5.3-.58-9.36,1.12-12.17,1.7-2.81,4.21-4.78,7.51-5.91,3.45-1.09,7.45-1.09,12,0,1.79.43,3.64.98,5.54,1.65l4.92-30.32c.44-3.2-.32-5.59-2.28-7.16-1.84-1.47-4.39-5.29-7.66-5.98h91.36Zm-49.04,116.96l7.23-43.28-16.94-5.07-.38,2.93-7.93,45.7,18.01-.27Zm16.48-102.34l-17.7-.13-.55,3.83-5.5,32.65c.86.28,1.7.54,2.5.78.8.24,1.63.49,2.5.78l12.66-4.72,1.08-2.28,5-30.9Zm403.88,56.52l5.01-32.3,5.55-37.83h26.23l-17.31,114.08h-24.67l-11.39-63.77-9.6,63.77h-26.08l15.69-101.16,1.58-12.92h25.04l9.95,70.13Zm-200.01-58.3c.06-.44.09-.87.1-1.28l1.22-10.56h26.38l-14.8,98.42,6.72,7.62,8.65-5.8c1.89-11.74,12.9-88.5,14.8-100.24h26.18l-14.36,96.06-39.38,27.97-28.94-26.82,5.58-35.74,7.85-49.64Zm64.75,102.25l17.06-114.08h68.15c-.92,5.71-1.73,13.57-2.42,18.1l-2.08,13.54c-.69,4.5-1.5,9.58-2.42,15.24-4.33-5.46-9.3-9.89-14.9-13.31-3.05-1.86-5.9-3.4-8.54-4.63l2.4-15.94-15.47-.27-5.03,33.24c6.44-1.04,12.17-1.51,17.2-1.41,5.03.1,9.03.99,12.01,2.68,2.82,1.69,4.48,3.9,4.98,6.63.5,2.73-.87,6.21-4.11,10.44.97-3.79-.18-6.26-3.44-7.43-3.26-1.16-7.53-1.54-12.82-1.13-5.28.41-10.47,1.08-15.56,2.02l-1.42,8.6-5.85,38.27h15.12l.23-.89,2.53-13.41c2.98-1.18,6.28-2.7,9.92-4.57,6.87-3.53,13.15-7.96,18.85-13.28-1.15,7.5-2.2,14.39-3.14,20.66l-3.14,20.94h-68.12Zm-107.93-64.87c1.15-5.82,2.15-11.71,2.98-17.64.83-5.94,1.76-12.04,2.7-17.96l-14.76.04-6.49,37.38c3.41.68,5.54.93,7.94.66,3.45-.38,5.78-1.43,7.64-2.48Zm-35.94-36.62c.13-.67.2-1.31.2-1.93l1.26-10.97h43.55c1.87,3.75,4.68,9.61,8.44,12.09,3.76,2.48,8.3,4.14,13.63,4.99l-14.65,97h-26.43l1.42-9.45.06-.36,6.71-43.41c-2.41.96-5.69,1.43-10.06,1.5-1.2.02-2.48-.04-3.82-.18-.58-.06-1.17-.14-1.78-.23-3.38-.48-7.16-1.4-11.36-2.79l10.74,6.6-7.52,48.32h-25.99l10.53-68.67,2.27-14.57c.91-5.89,1.85-11.87,2.81-17.94Zm-32.6,65.54l5.85,35.68-1.41.27h-21.92s-4.11-20.93-6.53-32.66c-2.13-10.32-4.3-21.12-4.98-25.31l-.27-1.4-8.59,59.37h-28.51l1.73-11.26c.45-2.29.94-5.23,1.47-8.81,1.08-7.3,12.58-82.2,12.58-82.2.07-.48.11-.94.11-1.38l1.18-10.43h68.17l-4.87,34.34-4.83,31.36c-1.84.48-6.59,1.61-9.94,1.55-3.09-.05-7.84-1.17-7.84-1.17l7.37,4.54,1.23,7.51Z" style="fill:#fff; fill-rule:evenodd;"></path><path d="m524.9,2.37v1.28h.52c.31,0,.54-.05.68-.15.14-.1.22-.26.22-.47,0-.22-.08-.39-.23-.5-.15-.11-.39-.16-.72-.16h-.47Zm-1.06-.68h1.71c.62,0,1.08.11,1.4.32.31.21.47.53.47.95,0,.29-.08.54-.25.75-.17.21-.4.35-.7.42l.98,1.97h-1.18l-.83-1.8h-.52v1.8h-1.06V1.69Zm1.63-1.03c-.45,0-.86.08-1.25.24-.38.16-.73.39-1.04.7-.32.32-.57.69-.74,1.1-.17.41-.26.83-.26,1.27s.08.86.24,1.25c.16.4.4.75.7,1.06.31.32.67.57,1.07.74.4.17.82.26,1.25.26s.83-.08,1.23-.25c.4-.17.76-.41,1.09-.72.31-.3.54-.65.71-1.04.17-.4.25-.81.25-1.23,0-.47-.08-.91-.24-1.3-.16-.4-.39-.75-.7-1.07-.32-.33-.67-.58-1.07-.74-.4-.17-.82-.25-1.28-.25Zm-.01-.67c.54,0,1.05.1,1.54.31.48.2.91.5,1.29.89.36.37.64.79.83,1.27.19.48.29.98.29,1.52s-.1,1.05-.3,1.53c-.2.48-.48.91-.86,1.27-.38.37-.81.66-1.29.86-.48.2-.98.3-1.49.3s-1.03-.1-1.51-.31c-.48-.21-.91-.5-1.28-.89-.37-.37-.65-.8-.84-1.27-.19-.47-.29-.97-.29-1.49,0-.36.05-.72.14-1.06.1-.34.24-.68.43-1.01.36-.6.83-1.08,1.41-1.41.59-.34,1.23-.5,1.94-.5Z" style="fill:#fff; fill-rule:evenodd;"></path><path d="m536.45,3.1h-1c-.03-.25-.12-.44-.28-.58-.16-.14-.37-.21-.63-.21-.32,0-.58.14-.76.44-.18.29-.28.69-.28,1.21s.09.92.28,1.2c.18.27.45.41.81.41.26,0,.47-.07.62-.22.16-.15.25-.36.28-.64h1.03c-.03.49-.22.89-.58,1.19-.36.3-.82.45-1.39.45-.66,0-1.18-.21-1.57-.63-.38-.42-.57-.99-.57-1.72s.19-1.32.58-1.75c.39-.44.91-.65,1.57-.65.54,0,.99.14,1.34.42.35.28.54.64.56,1.09Zm-1.91-2.44c-.45,0-.88.08-1.28.25s-.75.4-1.06.71c-.32.32-.56.68-.73,1.08-.17.4-.25.82-.25,1.27s.08.87.25,1.26c.17.4.41.75.73,1.07.31.31.67.55,1.07.72.4.17.82.25,1.26.25s.86-.08,1.27-.25c.4-.17.77-.41,1.09-.73.31-.31.55-.66.71-1.05.16-.39.24-.82.24-1.27s-.08-.87-.25-1.27c-.17-.4-.4-.76-.72-1.07-.32-.32-.67-.56-1.07-.72-.4-.17-.82-.25-1.27-.25Zm-.01-.67c.54,0,1.05.1,1.54.3.48.2.91.49,1.29.87.37.37.66.8.85,1.28.2.48.29.99.29,1.53s-.1,1.05-.29,1.52c-.19.47-.48.89-.86,1.26-.4.38-.84.68-1.32.88s-.99.31-1.51.31-1.02-.1-1.5-.3c-.48-.2-.9-.49-1.29-.88-.38-.38-.67-.8-.87-1.28-.2-.48-.3-.98-.3-1.5s.1-1.04.3-1.52c.2-.48.49-.92.87-1.3.37-.38.8-.66,1.27-.86.47-.2.98-.3,1.52-.3Z" style="fill:#fff; fill-rule:evenodd;"></path><path d="m104.29,142.44h9.8c6.56,0,9.35,3.14,9.56,7.51.27,5.6-3.77,9.55-11.24,9.55h-3.63l-1.3,7.37c-.03.14-.17.25-.31.25h-7.33c-.18,0-.29-.14-.26-.32l2.29-11.7,2.11-12.41c.03-.14.17-.25.31-.25Zm5.46,11.67h2.5c2.85,0,4.01-1.62,3.91-3.67-.07-1.48-.83-2.64-3.05-2.64h-2.19l-1.18,6.31Z" style="fill:#fff;"></path><path d="m144.01,161.93l-.89,4.94c-.03.14-.17.25-.31.25h-18.68c-.18,0-.29-.14-.26-.32l2.26-11.6,2.14-12.51c.03-.14.17-.25.31-.25h18.4c.18,0,.29.14.26.32l-.89,4.9c-.03.14-.17.25-.31.25h-10.89l-.74,3.6h9.69c.18,0,.29.14.26.32l-.89,4.9c-.03.14-.16.25-.31.25h-9.76l-.76,4.65h11.1c.18,0,.29.14.26.32Z" style="fill:#fff;"></path><path d="m165.37,158.19l4.08,8.6c.08.21.02.32-.2.32h-7.68c-.14,0-.28-.04-.36-.21l-3.04-6.73-.55-1.23h-2.15l-1.38,7.93c-.03.14-.16.25-.3.25h-7.26c-.18,0-.29-.14-.26-.32l2.19-11.63,2.22-12.48c.03-.14.17-.25.31-.25h11c6.56,0,9.35,3.03,9.55,7.23.19,4.02-1.98,7.16-6.14,8.53Zm-7.83-10.4l-1.1,5.78h4.05c2.61,0,3.67-1.48,3.57-3.35-.07-1.38-.79-2.43-2.8-2.43h-3.74Z" style="fill:#fff;"></path><path d="m180.03,166.86c-.03.14-.16.25-.3.25h-7.26c-.18,0-.29-.14-.26-.32l2.34-12.06,2.06-12.06c.03-.14.17-.25.31-.25h17.8c.18,0,.29.14.26.32l-.89,4.9c-.03.14-.16.25-.31.25h-10.29l-.94,4.69h9.87c.18,0,.29.14.26.32l-.89,4.9c-.03.14-.16.25-.3.25h-9.94l-1.51,8.81Z" style="fill:#fff;"></path><path d="m195.64,156.47c-.36-7.54,4.93-14.67,13.92-14.67,6.77,0,12.11,4.05,12.46,11.25.37,7.58-4.96,14.7-13.92,14.7-6.77,0-12.11-4.06-12.46-11.28Zm18.65-3.63c-.18-3.77-2.16-5.36-4.77-5.36-5.04,0-6.31,5.82-6.14,9.24.18,3.77,2.16,5.36,4.77,5.36,5.04,0,6.31-5.82,6.14-9.24Z" style="fill:#fff;"></path><path d="m242.21,158.19l4.08,8.6c.08.21.02.32-.2.32h-7.68c-.14,0-.28-.04-.36-.21l-3.04-6.73-.55-1.23h-2.15l-1.38,7.93c-.03.14-.16.25-.3.25h-7.26c-.18,0-.29-.14-.26-.32l2.19-11.63,2.22-12.48c.03-.14.17-.25.31-.25h11c6.56,0,9.35,3.03,9.55,7.23.19,4.02-1.98,7.16-6.14,8.53Zm-7.83-10.4l-1.1,5.78h4.05c2.61,0,3.67-1.48,3.57-3.35-.07-1.38-.79-2.43-2.8-2.43h-3.74Z" style="fill:#fff;"></path><path d="m255.68,166.86c-.03.14-.16.25-.31.25h-6.06c-.18,0-.29-.14-.26-.32l2.3-12.27,2.11-11.84c.03-.14.17-.25.31-.25h8.71c.18,0,.29.07.33.25l2.5,14.49,7.33-14.52c.06-.14.17-.21.31-.21h9.94c.18,0,.29.14.26.32l-2.25,11.77-2.15,12.34c-.03.14-.16.25-.3.25h-7.23c-.18,0-.29-.14-.26-.32l1.89-10.58.03-.18.92-3.67-7.3,14.52c-.06.14-.17.21-.31.21h-5.32c-.18,0-.29-.07-.33-.25l-2.42-14.31-.43,3.49-.03.14-1.95,10.68Z" style="fill:#fff;"></path><path d="m304.46,142.72l3.38,24.11c0,.18-.06.28-.23.28h-6.91c-.18,0-.29-.11-.29-.28l-.55-4.79h-7.97l-2.23,4.87c-.06.14-.17.21-.31.21h-7.9c-.21,0-.33-.18-.23-.35l12.58-24.11c.07-.11.17-.21.31-.21h10.01c.18,0,.32.11.33.28Zm-6.19,5.32l-3.7,8.07h4.62l-.92-8.07Z" style="fill:#fff;"></path><path d="m317.3,166.86c-.03.14-.17.25-.31.25h-6.34c-.18,0-.29-.14-.26-.32l2.21-11.81,2.19-12.3c.03-.14.17-.25.31-.25h7.97c.14,0,.29.11.33.25l4.93,13.68.25-2.19.03-.14,2.09-11.35c.03-.14.16-.25.3-.25h6.31c.18,0,.29.14.26.32l-2.33,12.23-2.03,11.88c-.03.14-.16.25-.31.25h-8.21c-.14,0-.29-.11-.33-.25l-4.71-13.61-.3,2.57-.03.14-2.01,10.89Z" style="fill:#fff;"></path><path d="m338.76,156.43c-.36-7.51,4.79-14.63,13.89-14.63,6.42,0,10.57,3.52,11.31,9.34.04.18-.06.28-.23.28h-6.66c-.18,0-.29-.11-.33-.28-.44-2.54-2.04-3.67-4.23-3.67-4.97,0-6.17,5.85-6,9.2.18,3.81,2.16,5.39,4.77,5.39s3.87-1.62,4.55-3.63c.03-.14.17-.21.31-.21h6.8c.18,0,.29.11.26.25-1.09,5.22-5.3,9.27-12.1,9.27s-11.97-4.06-12.32-11.32Z" style="fill:#fff;"></path><path d="m384.92,161.93l-.89,4.94c-.03.14-.17.25-.31.25h-18.68c-.18,0-.29-.14-.26-.32l2.26-11.6,2.14-12.51c.03-.14.17-.25.31-.25h18.4c.18,0,.29.14.26.32l-.89,4.9c-.03.14-.17.25-.31.25h-10.89l-.74,3.6h9.69c.18,0,.29.14.26.32l-.89,4.9c-.03.14-.16.25-.3.25h-9.76l-.76,4.65h11.1c.18,0,.29.14.26.32Z" style="fill:#fff;"></path><path d="m394.3,167.11c-.11,0-.18-.11-.19-.21l2.45-12.69,2.01-11.56c0-.11.13-.21.24-.21h2.89c.11,0,.18.11.19.21l-2.16,11.39-1.89,10.43h11.03c.11,0,.18.11.19.21l-.39,2.22c0,.11-.13.21-.24.21h-14.13Z" style="fill:#fff;"></path><path d="m429.94,167.11c-.11,0-.22-.11-.26-.21l-1.12-7.16h-10.15l-3.74,7.19c-.07.11-.2.18-.31.18h-3.17c-.11,0-.15-.11-.11-.18l13.21-24.32c.07-.11.2-.18.31-.18h3.88c.11,0,.22.11.26.21l4.13,24.25c.04.11-.06.21-.17.21h-2.75Zm-1.83-10.15l-1.93-12.13-6.32,12.13h8.25Z" style="fill:#fff;"></path><path d="m445.81,167.11h-10.05c-.11,0-.18-.11-.19-.21l2.43-12.48,2.07-11.77c0-.11.13-.21.24-.21h8.71c5.32,0,8.6,2.15,7.97,6.59-.39,2.79-2.49,4.62-5.6,5.11,3.4,1.02,4.7,3.21,4.29,6.35-.72,4.76-5.14,6.63-9.87,6.63Zm-6.5-2.54h6.66c3.35,0,5.9-1.13,6.39-4.27.6-3.59-1.97-4.97-5.17-4.97h-6.2l-1.67,9.24Zm2.11-11.74h6.56c3.07,0,5.28-.99,5.71-3.59.49-2.93-1.48-4.3-4.75-4.3h-5.96l-1.56,7.9Z" style="fill:#fff;"></path></g></svg>